<svg width="45" height="45" viewBox="0 0 45 45" fill="none" xmlns="http://www.w3.org/2000/svg">
<rect width="45" height="45" rx="7.2606" fill="#2104FF"/>
<path d="M27.2695 8.66462C27.2695 7.93405 27.8618 7.3418 28.5924 7.3418H34.5681V12.7561C34.5681 13.4867 33.9759 14.079 33.2453 14.079H27.2695V8.66462Z" fill="white"/>
<path d="M18.8516 8.66462C18.8516 7.93405 19.4438 7.3418 20.1744 7.3418H26.1502V12.7561C26.1502 13.4867 25.5579 14.079 24.8273 14.079H18.8516V8.66462Z" fill="white"/>
<path d="M27.2695 16.5269C27.2695 15.7964 27.8618 15.2041 28.5924 15.2041H34.5681V20.6184C34.5681 21.349 33.9759 21.9413 33.2453 21.9413H27.2695V16.5269Z" fill="white"/>
<path d="M18.8516 24.3873C18.8516 23.6567 19.4438 23.0645 20.1744 23.0645H26.1502V28.4788C26.1502 29.2094 25.5579 29.8016 24.8273 29.8016H18.8516V24.3873Z" fill="white"/>
<path d="M10.4297 8.66462C10.4297 7.93405 11.0219 7.3418 11.7525 7.3418H17.7283V12.7561C17.7283 13.4867 17.136 14.079 16.4055 14.079H10.4297V8.66462Z" fill="white"/>
<path d="M10.4297 16.5269C10.4297 15.7964 11.0219 15.2041 11.7525 15.2041H17.7283V20.6184C17.7283 21.349 17.136 21.9413 16.4055 21.9413H10.4297V16.5269Z" fill="white"/>
<path d="M10.4297 32.2437C10.4297 31.5131 11.0219 30.9209 11.7525 30.9209H17.7283V36.3352C17.7283 37.0658 17.136 37.6581 16.4055 37.6581H10.4297V32.2437Z" fill="white"/>
<path d="M10.4297 24.3873C10.4297 23.6567 11.0219 23.0645 11.7525 23.0645H17.7283V28.4788C17.7283 29.2094 17.136 29.8016 16.4055 29.8016H10.4297V24.3873Z" fill="white"/>
</svg>
